<svg version="1.1" xmlns="http://www.w3.org/2000/svg" xmlns:xlink="http://www.w3.org/1999/xlink" width="33.96818" height="33.96818" viewBox="0,0,33.96818,33.96818"><g transform="translate(-223.01591,-163.01591)"><g data-paper-data="{&quot;isPaintingLayer&quot;:true}" fill-rule="nonzero" stroke="none" stroke-linecap="butt" stroke-linejoin="miter" stroke-miterlimit="10" stroke-dasharray="" stroke-dashoffset="0" style="mix-blend-mode: normal"><path d="M232,187v-2h2v-7c0,-1.38333 0.41667,-2.6125 1.25,-3.6875c0.83333,-1.075 1.91667,-1.77917 3.25,-2.1125v-0.7c0,-0.41667 0.14583,-0.77083 0.4375,-1.0625c0.29167,-0.29167 0.64583,-0.4375 1.0625,-0.4375c0.41667,0 0.77083,0.14583 1.0625,0.4375c0.29167,0.29167 0.4375,0.64583 0.4375,1.0625v0.7c1.33333,0.33333 2.41667,1.0375 3.25,2.1125c0.83333,1.075 1.25,2.30417 1.25,3.6875v7h2v2zM240,190c-0.55,0 -1.02083,-0.19583 -1.4125,-0.5875c-0.39167,-0.39167 -0.5875,-0.8625 -0.5875,-1.4125h4c0,0.55 -0.19583,1.02083 -0.5875,1.4125c-0.39167,0.39167 -0.8625,0.5875 -1.4125,0.5875z" fill="#1f1f1f" stroke-width="1"/><path d="M223.01591,196.98409v-33.96818h33.96818v33.96818z" fill="none" stroke-width="0"/></g></g></svg>