<svg version="1.1" xmlns="http://www.w3.org/2000/svg" xmlns:xlink="http://www.w3.org/1999/xlink" width="368.22748" height="368.22748" viewBox="0,0,368.22748,368.22748"><g transform="translate(-55.88626,4.11374)"><g data-paper-data="{&quot;isPaintingLayer&quot;:true}" fill-rule="nonzero" stroke="none" stroke-linecap="butt" stroke-linejoin="miter" stroke-miterlimit="10" stroke-dasharray="" stroke-dashoffset="0" style="mix-blend-mode: normal"><path d="M240,180c-23.28873,0 -43.22526,-8.29216 -59.8097,-24.8766c-16.58443,-16.58443 -24.8766,-36.52097 -24.8766,-59.8097c0,-23.28873 8.29216,-43.22526 24.8766,-59.8097c16.58443,-16.58443 36.52097,-24.8766 59.8097,-24.8766c23.28873,0 43.22526,8.29216 59.8097,24.8766c16.58443,16.58443 24.8766,36.52097 24.8766,59.8097c0,23.28873 -8.29216,43.22526 -24.8766,59.8097c-16.58443,16.58443 -36.52097,24.8766 -59.8097,24.8766zM70.62741,349.37259v-59.28041c0,-11.99719 3.08756,-23.02409 9.26256,-33.08058c6.17501,-10.0565 14.37899,-17.73119 24.61195,-23.02409c21.87733,-10.93861 44.10748,-19.1426 66.69046,-24.61195c22.58298,-5.46936 45.51888,-8.20398 68.80762,-8.20398c23.28873,0 46.22464,2.73463 68.80762,8.20398c22.58298,5.46936 44.81313,13.67334 66.69046,24.61195c10.23296,5.29289 18.43695,12.96759 24.61195,23.02409c6.17501,10.0565 9.26256,21.08339 9.26256,33.08058v59.28041zM112.97056,307.02944h254.05889v-16.93726c0,-3.88149 -0.9704,-7.41005 -2.91109,-10.58579c-1.94069,-3.17574 -4.49896,-5.64572 -7.6747,-7.41005c-19.05442,-9.52721 -38.2853,-16.67261 -57.69254,-21.43622c-19.40724,-4.7636 -38.99095,-7.14541 -58.75112,-7.14541c-19.76017,0 -39.34388,2.3818 -58.75112,7.14541c-19.40724,4.7636 -38.63812,11.90901 -57.69254,21.43622c-3.17574,1.76433 -5.734,4.23431 -7.6747,7.41005c-1.94069,3.17574 -2.91109,6.7043 -2.91109,10.58579zM240,137.65685c11.64437,0 21.61268,-4.14614 29.90485,-12.4383c8.29216,-8.29216 12.4383,-18.26048 12.4383,-29.90485c0,-11.64437 -4.14614,-21.61268 -12.4383,-29.90485c-8.29216,-8.29216 -18.26048,-12.4383 -29.90485,-12.4383c-11.64437,0 -21.61268,4.14614 -29.90485,12.4383c-8.29216,8.29216 -12.4383,18.26048 -12.4383,29.90485c0,11.64437 4.14614,21.61268 12.4383,29.90485c8.29216,8.29216 18.26048,12.4383 29.90485,12.4383z" fill="#000000" stroke-width="1"/><path d="M55.88626,364.11374v-368.22748h368.22748v368.22748z" fill="none" stroke-width="0"/></g></g></svg>