<svg version="1.1" xmlns="http://www.w3.org/2000/svg" xmlns:xlink="http://www.w3.org/1999/xlink" width="408.2263" height="177.31235" viewBox="0,0,408.2263,177.31235"><g transform="translate(-19.77956,-81.45946)"><g data-paper-data="{&quot;isPaintingLayer&quot;:true}" fill-rule="nonzero" stroke-linejoin="miter" stroke-miterlimit="10" stroke-dasharray="" stroke-dashoffset="0" style="mix-blend-mode: normal"><path d="M55.03771,180.39944c0,-41.60294 33.72585,-75.32879 75.32879,-75.32879c41.60294,0 75.32879,33.72585 75.32879,75.32879c0,41.60294 -33.72585,75.32879 -75.32879,75.32879c-41.60294,0 -75.32879,-33.72585 -75.32879,-75.32879z" fill="#629ab5" stroke="none" stroke-width="0" stroke-linecap="butt"/><path d="M122.75753,106.56074l72.2852,113.75407l-7.60897,9.13076l-71.90475,-121.36304z" fill="#a2e0ff" stroke="#a2e0ff" stroke-width="3.5" stroke-linecap="round"/><path d="M136.45367,105.79984l66.19802,95.49255l-2.66314,7.98942l-68.48071,-103.10152z" fill="#a2e0ff" stroke="#a2e0ff" stroke-width="3.5" stroke-linecap="round"/><path d="M169.10411,245.51117c-6.45068,4.04742 -7.65576,4.45896 -13.17288,6.38181c-9.65287,3.36427 -30.70975,4.13156 -30.70975,4.13156c0,0 -17.24439,-2.41046 -34.45199,-10.86248c-11.74395,-5.76839 -9.6697,-10.69512 -19.66335,-19.14034c-7.60876,-6.42985 -9.50568,-14.66357 -12.39111,-22.95221c-2.18382,-6.2732 -2.89027,-21.13793 -2.89027,-21.13793c0,0 16.90337,38.84437 38.42974,52.02942c21.52637,13.18505 68.20376,13.28435 68.20376,13.28435c0,0 15.01894,-6.9878 6.64585,-1.73419z" data-paper-data="{&quot;index&quot;:null}" fill="#5a8da7" stroke="none" stroke-width="3.5" stroke-linecap="round"/><path d="M143.30174,105.79984c0,0 -7.55181,-0.62735 0.25896,0.5204c6.01746,0.88423 12.5724,4.04685 16.9214,5.73813c7.60911,2.9591 23.14717,15.80748 23.14717,15.80748c0,0 9.42593,10.17166 15.50081,24.22643c3.8584,8.92675 5.00314,21.68969 5.89564,27.11909c1.29053,7.85074 3.18246,-2.27983 0.63953,4.25214c-1.9246,4.94368 -1.87221,-20.21596 -1.87221,-20.21596c0,0 -19.58282,-24.87465 -30.24262,-34.99811c-10.6598,-10.12346 -30.24868,-22.4496 -30.24868,-22.4496z" fill="#a2e0ff" stroke="none" stroke-width="0" stroke-linecap="round"/><path d="M93.08281,217.4024c0,0 4.28249,8.86323 34.91933,9.68257c29.60591,0.79177 38.88766,-9.30212 38.88766,-9.30212" fill="none" stroke="#000000" stroke-width="3.5" stroke-linecap="round"/><path d="M176.9138,222.22957c0,0 -2.05765,1.40242 -4.53293,0.46258c-2.34744,-0.8913 -4.13119,-3.55179 -4.83036,-4.74011c-0.60376,-1.02617 -1.46927,-5.8397 -0.93086,-7.72531c0.6714,-2.35134 2.53739,-3.06484 2.53739,-3.06484" fill="none" stroke="#000000" stroke-width="3.5" stroke-linecap="round"/><path d="M93.27072,203.0622c0,0 0.22956,3.89104 0.0577,7.81479c-0.10338,2.36013 -0.59097,5.42549 -1.33114,6.52318c-0.19308,0.28635 -0.46052,0.57486 -0.78564,0.85437c-1.13759,0.97797 -2.98135,1.84558 -4.81705,2.12366c-2.34358,0.35503 -4.67701,-0.26003 -4.67701,-0.26003" fill="none" stroke="#000000" stroke-width="3.5" stroke-linecap="round"/><path d="M55.03771,180.39944c0,-41.60294 33.72585,-75.32879 75.32879,-75.32879c41.60294,0 75.32879,33.72585 75.32879,75.32879c0,41.60294 -33.72585,75.32879 -75.32879,75.32879c-41.60294,0 -75.32879,-33.72585 -75.32879,-75.32879z" fill="none" stroke="#324e5c" stroke-width="3.5" stroke-linecap="butt"/><path d="M51.99413,258.77181v-156.74474h156.74474v156.74474z" fill="none" stroke="none" stroke-width="3.5" stroke-linecap="butt"/><g fill="#000000" stroke="none" stroke-width="0.5" stroke-linecap="butt"><path d="M244.49823,163.22812c-2.7019,1.36003 -4.06193,-1.34188 -4.06193,-1.34188l-0.13002,-0.25981c-2.60684,-4.92267 -5.82931,-9.33386 -8.31134,-14.33078c-0.44539,-0.89668 -1.2595,-1.76202 -1.80839,-2.65458c-0.69185,5.83348 -1.07214,11.72605 -0.5811,17.52865c0,0 0.25289,3.0143 -2.76139,3.2672c-3.01429,0.2529 -3.26719,-2.76139 -3.26719,-2.76139c-0.75372,-9.05681 0.42959,-18.28419 1.77268,-27.249c0.6866,-4.58291 1.3328,-10.67096 5.22903,-13.93869c5.74721,-4.82013 17.29004,-0.03186 18.25088,7.58283c0.51277,4.0637 -1.4248,5.94309 -3.40554,8.89947c-2.32933,2.96828 -2.26538,3.52187 -5.67557,5.33377c-0.81012,0.43043 -1.6598,0.8514 -2.55115,1.06682c0.64375,0.8277 1.22233,2.13133 1.62784,2.91463c2.05724,3.97385 4.71677,7.52863 6.8269,11.5085l0.18816,0.37235c0,0 1.36003,2.7019 -1.34187,4.06193zM230.65459,141.00321c0.95737,-0.83785 2.38243,-1.37438 3.46102,-2.04824c3.10121,-1.93752 4.08852,-1.43872 6.4187,-4.54735c0.59569,-0.83116 2.50199,-2.93641 2.32227,-4.37546c-0.27078,-2.16823 -6.2281,-6.36484 -8.16075,-4.11173c-2.54612,2.96831 -2.81118,6.72365 -3.36272,10.39864c-0.23305,1.55283 -0.4629,3.11518 -0.67852,4.68415z"/><path d="M268.08458,140.96859c3.02488,0 3.02488,3.02489 3.02488,3.02489l-0.00939,3.39888c-0.67528,4.25479 -1.66301,7.86856 -3.23755,11.41698l0.49681,0.08699l-0.62754,3.58414c-0.22623,1.44689 -1.47805,2.55385 -2.98843,2.55385c-1.67059,0 -3.02488,-1.35429 -3.02488,-3.02489v-0.54694c-0.18561,0.14624 -0.37454,0.29146 -0.56637,0.43571c-4.10126,3.084 -9.35975,5.30348 -12.74712,-0.49417c-3.59583,-6.15444 1.58922,-13.8034 6.97246,-16.67755c1.68654,-0.90045 3.62555,-2.05112 5.49415,-1.64668c1.86838,0.40439 3.21675,1.57856 4.19529,3.14864l-0.00718,-2.23497c0,0 0,-3.02489 3.02488,-3.02489zM256.41877,151.39389c-1.20894,1.22442 -2.32336,2.57361 -2.65619,3.12466c-0.33082,0.54772 -0.75696,4.52822 0.37027,4.58646c1.41998,0.07336 6.39974,-3.44507 6.4724,-4.8955c0.07348,-1.46696 -2.4024,-2.31883 -4.18648,-2.81562z"/><path d="M290.8437,167.19991c-3.01585,-0.23356 -2.78229,-3.24942 -2.78229,-3.24942l0.18399,-1.36919c-0.48017,-3.18922 0.00832,-8.93989 -2.1666,-11.5965c-1.76207,-2.15232 -6.05143,-1.70869 -7.57195,0.36186c-2.01076,2.73814 -2.41863,7.42712 -2.22807,10.63809c0,0 0.14485,3.02141 -2.87656,3.16627c-3.02141,0.14486 -3.16627,-2.87655 -3.16627,-2.87655c-0.17629,-4.49327 0.44198,-10.97538 3.49975,-14.64746c4.11797,-4.94529 12.44446,-5.63309 16.93042,-0.58634c3.26929,3.67799 2.87496,10.1077 3.56122,14.63724l-0.13422,2.73972c0,0 -0.23357,3.01585 -3.24942,2.78229z"/><path d="M310.5114,144.63336c0.29949,0.05471 0.6887,0.16105 1.07012,0.3678c0.51098,-4.45013 0.62449,-8.81617 0.46428,-13.57698c0,0 -0.10146,-3.02318 2.92172,-3.12464c3.02319,-0.10146 3.12465,2.92173 3.12465,2.92173c0.29763,8.89208 -0.23919,17.25741 -2.3073,25.92644c-1.30268,5.46054 -2.12026,9.43621 -8.51208,9.75504c-12.00106,0.59862 -16.3499,-19.85442 -4.65951,-23.63039c2.55761,-0.8261 5.52958,0.48557 7.89812,1.36101zM310.75042,150.51597c-0.44243,0.10921 -0.77283,0.10921 -0.77283,0.10921l-1.19862,-0.18422c-0.23873,-0.08974 -3.70002,-1.55679 -4.48377,-1.35734c-3.99405,1.01645 -2.30935,8.53017 -0.56107,10.49433c0.57528,0.64631 4.10894,2.18489 4.81464,1.47709c0.38876,-0.38992 0.0258,-1.11031 0.1616,-1.64392c0.64781,-2.54558 1.28511,-5.09595 1.80305,-7.6711c0.08254,-0.41041 0.16152,-0.81832 0.237,-1.22405z"/><path d="M332.3644,144.29556c2.60344,0.48561 4.97274,1.71289 6.71582,4.28743c4.0465,5.97672 0.17041,17.84287 -7.6963,18.5591c-1.62669,0.1481 -3.19061,-0.75833 -4.70402,-1.37286c-6.93041,-2.81413 -11.90519,-11.19027 -6.35485,-18.06005c0.26173,-0.32394 0.53255,-0.61357 0.81179,-0.87431c0.35243,-1.94862 2.52145,-2.28879 2.52145,-2.28879c1.00209,-0.1543 2.03078,-0.29554 3.06497,-0.39112c0.31461,-0.09569 0.63256,-0.19338 0.95335,-0.29693l1.38653,-0.45945c0,0 2.0981,-0.69466 3.30127,0.89699zM328.17584,149.9964c-1.14649,0.33082 -2.57182,0.81614 -3.11092,1.47219c-3.08026,3.74854 1.72378,9.80376 5.8064,9.64548c3.36174,-0.13034 4.51576,-7.02659 3.12293,-9.25501c-1.15299,-1.84471 -3.54408,-2.06073 -5.81842,-1.86266z"/><path d="M371.90663,168.4089c-2.76803,-1.21982 -1.5482,-3.98784 -1.5482,-3.98784l1.04483,-2.09605c-0.61226,-3.57434 -2.1503,-6.4243 -3.3889,-9.78053c-0.14823,-0.40167 0.27883,-1.35261 -0.14251,-1.27651c-1.42944,0.25816 -1.64357,2.4034 -2.59674,3.49948c-0.8533,0.98123 -1.69518,1.97231 -2.52871,2.97047l-2.04656,4.9671c-0.48086,1.2474 -1.75399,2.06731 -3.14623,1.91742c-1.61852,-0.17425 -2.80078,-1.59488 -2.69474,-3.20423l0.17959,-3.02263c-0.15364,-0.91545 -0.13616,-1.88255 -0.50148,-2.73409c-0.55771,-1.29996 -1.55425,-2.3669 -2.24255,-3.60269c-0.18417,-0.33067 0.01373,-1.10951 -0.36327,-1.07583c-0.54824,0.04898 -0.75828,0.79829 -1.12495,1.2088c-3.11829,3.49097 -3.12093,7.37939 -2.54667,11.83184c0,0 0.36523,3.00275 -2.63752,3.36798c-3.00275,0.36523 -3.36798,-2.63752 -3.36798,-2.63752c-0.52974,-4.58303 -0.74888,-9.37689 1.62888,-13.62166c1.45272,-2.5934 5.55149,-6.39069 8.79411,-6.15303c2.37083,0.17377 5.16762,4.16053 6.63646,6.77784c2.59737,-3.02221 7.35672,-6.69598 9.36575,-6.48488c1.97033,0.20703 3.20981,2.40766 4.41217,3.98227c2.92198,3.82666 3.80604,9.33649 4.29943,13.93572l-1.49634,3.67037c0,0 -1.21981,2.76803 -3.98784,1.54821z"/></g><g fill="#000000" stroke="none" stroke-width="0.5" stroke-linecap="butt"><path d="M254.29073,223.61994c-7.55726,-0.38972 -10.13982,-8.06109 -8.01352,-14.53932c0.1267,-0.38603 0.27007,-0.75641 0.42891,-1.11176c-0.06322,-0.1231 -0.12263,-0.2555 -0.17762,-0.39787c-1.08993,-2.8217 1.73176,-3.91162 1.73176,-3.91162c3.33139,-1.28369 8.73385,-5.05123 12.52997,-3.59978c0.16974,-0.01586 0.33878,-0.03037 0.50698,-0.04361c0.7143,0.59843 1.37221,1.20678 1.97784,1.82744c0.28833,-0.87268 1.013,-1.96935 2.83435,-1.96935c3.02488,0 3.02488,3.02489 3.02488,3.02489v1.05356c-0.00083,2.83288 -0.1058,5.65598 -0.16809,8.48406c0.40828,1.78577 0.66091,3.69141 0.80282,5.74309l-0.03947,0.10134h0.04116v3.5821c0,1.67059 -1.35429,3.02489 -3.02488,3.02489c-1.40386,0 -2.58436,-0.95636 -2.92553,-2.25311l-0.45143,-1.56938c-2.55079,1.79004 -5.81162,2.72289 -9.07811,2.55444zM258.87726,205.95012c-4.19952,1.26617 -6.85698,3.55626 -6.9265,8.10165c-0.02271,1.48446 -0.55047,2.50679 1.01754,3.28627c2.41417,1.20013 7.64995,-0.73386 9.04391,-2.90015c1.54786,-2.40545 -1.28129,-5.16545 -2.33678,-6.75206c-0.34632,-0.52059 -0.42088,-1.26314 -0.79818,-1.73571z"/><path d="M296.52704,228.71704c-3.02488,0 -3.02488,-3.02488 -3.02488,-3.02488l0.00597,-2.33861c-0.24159,-3.86586 0.56049,-8.55506 -0.68885,-12.26674c-1.97111,-5.85599 -7.43167,-7.93105 -11.62038,-3.21342c-3.40987,3.84043 -4.26478,9.76085 -4.56427,14.63732c0,0 -0.18996,3.01891 -3.20887,2.82894c-3.01891,-0.18997 -2.82895,-3.20887 -2.82895,-3.20887c0.60165,-9.35838 6.07009,-27.3333 19.20627,-22.63555c1.40558,0.50267 2.48873,1.66227 3.62079,2.63528c1.15489,0.99263 2.31823,2.01422 3.21811,3.24276c3.73685,5.10164 2.53093,11.71462 2.90398,17.60036l0.00597,2.71853c0,0 0,3.02488 -3.02489,3.02488z"/><path d="M326.78994,221.99492c0.54942,0.13827 0.97005,0.35356 1.29084,0.61214c1.11044,-0.08224 2.11924,-0.21792 3.55021,-0.6c1.7324,-0.46257 3.60895,-0.7499 5.07586,-1.78108c1.26709,-0.89072 1.41658,-2.40606 1.38243,-3.77623c-0.12719,-5.10314 -4.2842,-8.92634 -4.24322,-13.85702c0.06014,-7.23674 8.53121,-13.73487 13.19743,-18.37101c0,0 2.14613,-2.13167 4.2778,0.01446c2.13167,2.14613 -0.01446,4.27781 -0.01446,4.27781c-2.82409,2.80422 -5.9579,5.69295 -8.46362,8.79935c-0.40728,0.50491 -2.97231,3.8773 -2.94738,5.2794c0.05302,2.98102 3.12987,6.04094 3.74381,9.02455c0.33307,1.61865 0.52371,3.2802 0.49858,4.93258c-0.14956,9.83529 -10.23137,11.70624 -18.09878,12.23958l-2.92115,-4.59938c0,0 0.73825,-2.93341 3.67166,-2.19515z"/><path d="M237.80692,221.95347c-0.96212,-0.96867 -1.05279,-1.93438 -0.86265,-2.70247c-1.45908,-3.1241 -2.61404,-6.27588 -3.85034,-9.52468c-1.19014,-3.12752 -3.02931,-6.21965 -4.06331,-9.45833c-0.61007,6.46734 -1.45836,12.68265 -1.11856,19.40175c0,0 0.15209,3.02106 -2.86897,3.17314c-3.02106,0.15208 -3.17314,-2.86898 -3.17314,-2.86898c-0.42515,-8.48329 0.97475,-16.21637 1.48709,-24.57328c0.35813,-5.84153 -0.45139,-13.36015 3.74807,-18.06754c5.05505,-5.66646 16.81313,-6.90013 20.30048,1.4844c1.63345,3.92724 -0.16335,7.21044 -1.30652,10.82999c-2.59554,2.30619 -5.48108,4.62492 -8.83764,5.5131c-1.03257,0.27323 -2.10864,0.43435 -3.17666,0.42012c-0.36992,-0.00493 -1.08313,-0.83692 -1.00268,-0.47582c0.15391,0.69073 0.96442,1.06167 1.27491,1.69759c1.04641,2.14314 1.70055,4.45804 2.64493,6.64806c2.09937,4.86847 3.68515,9.84365 6.0773,14.58981l-0.99451,3.92765c0,0 -2.14615,2.13164 -4.2778,-0.01451zM229.53361,190.72371c0.98845,-0.42965 2.16639,-0.66637 3.135,-1.02469c3.57214,-1.32146 5.2082,-0.71991 8.3513,-3.33814c0.30904,-1.11923 1.32545,-3.79703 0.81488,-5.18419c-1.81268,-4.92489 -10.14001,-1.82696 -11.33832,1.94785c-0.75693,2.38439 -0.90644,5.00192 -0.96285,7.59917z"/><path d="M312.16687,225.01343c-0.82241,-1.65601 -0.12986,-2.80248 0.53287,-3.44358c0,-5.0811 0,-10.16219 0,-15.24329c-3.21235,-0.18872 -6.42709,-0.28354 -9.70363,-0.28354c0,0 -3.02488,0.00001 -3.02488,-3.02488c0,-3.02489 3.02488,-3.02488 3.02488,-3.02488c3.2671,0 6.47917,0.09122 9.68681,0.27266c0.06644,-3.68465 0.50123,-7.1149 2.59173,-10.6408c0,0 1.5931,-2.57137 4.16447,-0.97827c2.57137,1.5931 0.97828,4.16447 0.97828,4.16447c-1.78015,2.69087 -1.73119,4.94347 -1.6833,7.90304c1.15387,0.10543 2.31124,0.22235 3.47445,0.35073l1.78959,-0.01826c0,0 3.02488,0 3.02488,3.02488c0,3.02489 -3.02488,3.02488 -3.02488,3.02488l-2.45323,-0.01825c-0.93508,-0.10319 -1.86588,-0.19872 -2.79382,-0.28657c0.00083,5.48494 -0.0016,10.96989 -0.0016,16.45483l-2.528,3.1306c0,0 -2.70919,1.34544 -4.05463,-1.36375z"/></g><g stroke="none" stroke-width="0.5" stroke-linecap="butt"><path d="M427.59654,182.74287c-2.21911,7.5269 -9.74602,5.30779 -9.74602,5.30779l-0.95762,-0.75895c-21.28598,1.18632 -43.2806,0.25426 -64.55893,-0.96491c-1.01639,-0.03447 -2.00545,-0.26736 -2.91584,-0.67166c-2.16131,-0.86204 -4.79726,-2.83127 -4.66611,-7.30195c0.00345,-0.21335 0.01567,-0.42561 0.0364,-0.6363c0.38018,-4.46335 3.22857,-6.11826 5.47609,-6.72646c0.00234,-0.00072 0.00469,-0.00146 0.00703,-0.00218c0.98749,-0.30687 1.98973,-0.40886 2.96092,-0.33007c20.68459,1.19161 42.08491,2.14505 62.77696,0.96399l6.27933,1.37469c0,0 7.52689,2.21911 5.30778,9.74602z" fill="#008102"/><path d="M385.95502,222.3514c-7.49371,2.32876 -9.82248,-5.16494 -9.82248,-5.16494l-0.93243,-5.13853c2.17667,-20.85322 7.05342,-41.60372 5.26683,-62.63457c0,0 -0.64771,-7.82045 7.17274,-8.46813c7.82045,-0.64768 8.46814,7.17274 8.46814,7.17274c1.7887,22.10446 -3.02952,43.64516 -5.29742,65.55284l0.30955,-1.14187c0,0 2.32878,7.4937 -5.16493,9.82245z" fill="#008102"/><path d="M424.07515,179.22148c-2.21911,7.5269 -9.74602,5.30779 -9.74602,5.30779l-0.95763,-0.75895c-21.28598,1.18632 -43.28059,0.25426 -64.55892,-0.96491c-1.01639,-0.03447 -2.00545,-0.26736 -2.91584,-0.67166c-2.16131,-0.86204 -4.79726,-2.83127 -4.66611,-7.30194c0.00345,-0.21335 0.01568,-0.42562 0.03641,-0.63631c0.38018,-4.46335 3.22854,-6.11825 5.47607,-6.72645c0.00234,-0.00072 0.0047,-0.00146 0.00704,-0.00219c0.98749,-0.30687 1.98974,-0.40887 2.96092,-0.33008c20.68459,1.19161 42.08491,2.14506 62.77696,0.964l6.27934,1.37469c0,0 7.52689,2.21912 5.30778,9.74603z" fill="#00ff05"/><path d="M382.43361,218.83001c-7.49371,2.32876 -9.82247,-5.16494 -9.82247,-5.16494l-0.93243,-5.13854c2.17667,-20.85322 7.05342,-41.60371 5.26683,-62.63456c0,0 -0.64771,-7.82046 7.17274,-8.46814c7.82045,-0.64768 8.46814,7.17274 8.46814,7.17274c1.7887,22.10446 -3.02952,43.64517 -5.29742,65.55285l0.30955,-1.14187c0,0 2.32877,7.4937 -5.16494,9.82245z" fill="#00ff05"/></g><path d="M55.4337,177.2369c0,0 -1.16116,-3.13458 0.31478,-15.29434c1.23312,-10.15935 6.02721,-29.14588 -1.44065,-33.89384c-24.3471,-15.47957 -18.3082,13.27246 -18.3082,13.27246c0,0 -13.60868,-55.9721 43.83269,-58.11172c32.36197,-1.20544 72.93188,37.92204 72.93188,37.92204z" fill="#ff4242" stroke="#a90000" stroke-width="3.5" stroke-linecap="round"/><path d="M23.20734,142.71712c-3.90783,-9.1504 -0.75674,-19.15573 7.03814,-22.34752c7.79489,-3.19179 17.28181,1.63862 21.18963,10.78903c3.90783,9.1504 0.75675,19.15573 -7.03814,22.34752c-7.79489,3.19179 -17.28181,-1.63862 -21.18964,-10.78902z" fill="#ffffff" stroke="#6a6a6a" stroke-width="3.5" stroke-linecap="butt"/><path d="M202.12649,153.17382c0,0 -57.85146,-0.58432 -83.13519,5.03621c-22.19183,4.9332 -63.0048,26.89471 -63.0048,26.89471c0,0 -7.57747,-42.4537 21.27863,-64.81547c15.29987,-11.85649 55.91414,-20.36611 81.29007,-10.4302c29.83244,11.68085 43.5713,43.31475 43.5713,43.31475z" fill="#ffffff" stroke="#6a6a6a" stroke-width="3.5" stroke-linecap="butt"/><path d="M106.28511,164.55699c0,8.05735 0.04648,17.26209 -2.96126,22.58405c-3.07094,5.43378 -8.10367,6.1398 -12.82735,6.1398c-9.35016,0 -18.0713,-12.43988 -18.0713,-28.72385c0,-13.46099 8.22312,-24.6883 15.3006,-28.22045c1.48426,-0.74075 1.53021,-0.75704 3.15115,-0.75704c3.61068,0 5.43557,2.6026 8.18372,5.95702c2.69793,3.29312 3.67765,7.86706 4.90532,12.94739c0.76014,3.14559 2.31912,6.25072 2.31912,10.07308z" fill="#ffffff" stroke="#000000" stroke-width="3.5" stroke-linecap="butt"/><path d="M73.31292,163.54246c0,-10.53642 2.49431,-13.90138 5.60457,-17.60875c1.07638,-1.28303 4.20472,-6.54972 5.55524,-6.54972c2.03047,0 3.0261,3.14494 4.1059,5.95554c1.71369,4.46053 2.86899,10.39009 2.86899,19.09065c0,14.18282 -5.52648,21.36852 -10.77937,21.36852c-5.2529,0 -7.35533,-8.07341 -7.35533,-22.25623z" fill="#000000" stroke="#000000" stroke-width="3.5" stroke-linecap="butt"/><path d="M188.95195,161.15074c0,0.27823 2.40613,10.32031 2.39942,10.59649c-0.34859,14.35832 -17.5551,20.28324 -29.03081,20.28324c-3.0278,0 -5.03452,-0.57407 -7.09781,-2.43264c-1.38501,-1.2476 -2.87886,-2.87331 -4.06249,-4.77207c-0.39817,-0.63873 -0.76122,-1.30836 -1.07323,-2.00489c-1.01034,-2.25553 -2.25941,-5.04677 -2.79268,-7.73067c-0.90044,-4.53188 -0.699,-9.2272 -0.699,-13.93945c0,-2.7233 -0.43737,-5.35134 0.16386,-7.82641c0.61758,-2.54234 0.80849,-6.69869 2.02571,-8.85565c1.38587,-2.45581 4.52006,-4.88656 6.67067,-6.35252c2.81792,-1.92083 3.94186,-2.80815 6.81053,-3.25134c1.28173,-0.19802 4.02827,-0.40887 5.50752,-0.40887c3.24501,0 4.16368,2.3149 6.91259,3.95914c2.65067,1.58548 4.15272,4.54092 6.43089,7.05711c3.87509,4.27997 7.83482,8.96977 7.83482,15.67854z" fill="#ffffff" stroke="#000000" stroke-width="3.5" stroke-linecap="butt"/><path d="M166.16699,139.21245c1.07638,-1.28303 2.17566,-2.11116 3.52618,-2.11116c0.28007,0 4.21812,1.83526 4.46175,1.9458c1.52265,0.69085 9.87312,9.44942 10.80398,11.87234c1.71369,4.46053 3.88352,2.14704 3.88352,10.8476c0,0.27081 1.6466,5.61171 1.64261,5.87742c-0.04907,3.26856 -0.40956,6.75411 -1.05339,9.39182c-0.85667,3.50977 -2.215,5.81157 -4.0088,6.9503c-2.4879,1.57936 -2.41964,2.57301 -4.69666,2.57301c-0.13639,0 -1.66181,1.26144 -1.78709,1.24811c-2.38955,-0.25427 -1.50276,-2.9145 -5.45581,-7.25499c-1.38263,-1.51815 -3.9118,-4.82245 -4.47163,-7.45369c-0.57305,-2.69334 -4.03841,-5.43867 -3.64603,-8.08599c0.07566,-0.51044 -1.56359,-3.01432 -1.90559,-5.99791c-0.6006,-5.23965 -0.40328,-16.0953 2.70697,-19.80267z" data-paper-data="{&quot;index&quot;:null}" fill="#000000" stroke="#000000" stroke-width="3.5" stroke-linecap="butt"/><g stroke-width="3.5"><path d="M167.13689,139.22425v-16.58019h17.305v16.58019z" fill="#00ff15" stroke="none" stroke-linecap="butt"/><path d="M167.23197,139.20459h-20.25256v-15.97385h21.1083" fill="#00ff15" stroke="#117500" stroke-linecap="round"/><path d="M168.08771,123.23074v-20.25256h15.97385v19.68206" data-paper-data="{&quot;index&quot;:null}" fill="#00ff15" stroke="#117500" stroke-linecap="round"/><path d="M184.06156,122.66025h20.25256v15.97385h-21.1083" data-paper-data="{&quot;index&quot;:null}" fill="#00ff15" stroke="#117500" stroke-linecap="round"/><path d="M183.20582,138.91934v21.67879h-15.97385v-21.39355" data-paper-data="{&quot;index&quot;:null}" fill="#00ff15" stroke="#117500" stroke-linecap="round"/><path d="M168.6395,103.63172h14.56454v20.07292h20.16629v14.47118h-20.6331" fill="none" stroke="#84ff8a" stroke-linecap="round"/><path d="M167.23197,139.20459h-20.25256v-15.97385h21.1083" fill="none" stroke="#117500" stroke-linecap="round"/><path d="M168.08771,123.23074v-20.25256h15.97385v19.68206" data-paper-data="{&quot;index&quot;:null}" fill="none" stroke="#117500" stroke-linecap="round"/><path d="M184.06156,122.66025h20.25256v15.97385h-21.1083" data-paper-data="{&quot;index&quot;:null}" fill="none" stroke="#117500" stroke-linecap="round"/><path d="M183.20582,138.91934v21.67879h-15.97385v-21.39355" data-paper-data="{&quot;index&quot;:null}" fill="none" stroke="#117500" stroke-linecap="round"/></g></g></g></svg>