<svg version="1.1" xmlns="http://www.w3.org/2000/svg" xmlns:xlink="http://www.w3.org/1999/xlink" width="27.49317" height="27.49317" viewBox="0,0,27.49317,27.49317"><g transform="translate(-226.25342,-166.25342)"><g data-paper-data="{&quot;isPaintingLayer&quot;:true}" fill-rule="nonzero" stroke="none" stroke-linecap="butt" stroke-linejoin="miter" stroke-miterlimit="10" stroke-dasharray="" stroke-dashoffset="0" style="mix-blend-mode: normal"><path d="M237.25,190l-0.4,-3.2c-0.21667,-0.08334 -0.42083,-0.18333 -0.6125,-0.3c-0.19167,-0.11667 -0.37917,-0.24167 -0.5625,-0.375l-2.975,1.25l-2.75,-4.75l2.575,-1.95c-0.01666,-0.11667 -0.025,-0.22916 -0.025,-0.3375v-0.675c0,-0.10834 0.00834,-0.22083 0.025,-0.3375l-2.575,-1.95l2.75,-4.75l2.975,1.25c0.18333,-0.13333 0.375,-0.25833 0.575,-0.375c0.2,-0.11667 0.4,-0.21667 0.6,-0.3l0.4,-3.2h5.5l0.4,3.2c0.21667,0.08334 0.42083,0.18333 0.6125,0.3c0.19167,0.11667 0.37917,0.24167 0.5625,0.375l2.975,-1.25l2.75,4.75l-2.575,1.95c0.01666,0.11667 0.025,0.22916 0.025,0.3375v0.675c0,0.10834 -0.01667,0.22083 -0.05,0.3375l2.575,1.95l-2.75,4.75l-2.95,-1.25c-0.18333,0.13333 -0.375,0.25833 -0.575,0.375c-0.2,0.11667 -0.4,0.21667 -0.6,0.3l-0.4,3.2zM239,188h1.975l0.35,-2.65c0.51666,-0.13333 0.99583,-0.32917 1.4375,-0.5875c0.44167,-0.25833 0.84583,-0.57083 1.2125,-0.9375l2.475,1.025l0.975,-1.7l-2.15,-1.625c0.08334,-0.23334 0.14166,-0.47917 0.175,-0.7375c0.03333,-0.25833 0.05,-0.52084 0.05,-0.7875c0,-0.26666 -0.01667,-0.52917 -0.05,-0.7875c-0.03333,-0.25833 -0.09166,-0.50417 -0.175,-0.7375l2.15,-1.625l-0.975,-1.7l-2.475,1.05c-0.36667,-0.38333 -0.77084,-0.70416 -1.2125,-0.9625c-0.44167,-0.25833 -0.92084,-0.45417 -1.4375,-0.5875l-0.325,-2.65h-1.975l-0.35,2.65c-0.51666,0.13333 -0.99583,0.32917 -1.4375,0.5875c-0.44167,0.25833 -0.84583,0.57083 -1.2125,0.9375l-2.475,-1.025l-0.975,1.7l2.15,1.6c-0.08334,0.25 -0.14166,0.5 -0.175,0.75c-0.03333,0.25 -0.05,0.51667 -0.05,0.8c0,0.26666 0.01667,0.525 0.05,0.775c0.03333,0.25 0.09166,0.5 0.175,0.75l-2.15,1.625l0.975,1.7l2.475,-1.05c0.36667,0.38333 0.77084,0.70416 1.2125,0.9625c0.44167,0.25833 0.92084,0.45417 1.4375,0.5875zM240.05,183.5c0.96667,0 1.79166,-0.34167 2.475,-1.025c0.68333,-0.68333 1.025,-1.50833 1.025,-2.475c0,-0.96667 -0.34167,-1.79166 -1.025,-2.475c-0.68333,-0.68333 -1.50833,-1.025 -2.475,-1.025c-0.98334,0 -1.8125,0.34167 -2.4875,1.025c-0.675,0.68333 -1.0125,1.50833 -1.0125,2.475c0,0.96667 0.3375,1.79166 1.0125,2.475c0.675,0.68333 1.50417,1.025 2.4875,1.025z" fill="#101010" stroke-width="1"/><path d="M226.25342,193.74658v-27.49317h27.49317v27.49317z" fill="none" stroke-width="0"/></g></g></svg>