<svg version="1.1" xmlns="http://www.w3.org/2000/svg" xmlns:xlink="http://www.w3.org/1999/xlink" width="629.70438" height="457.66803" viewBox="0,0,629.70438,457.66803"><defs><radialGradient cx="240" cy="392.99798" r="314.6587" gradientUnits="userSpaceOnUse" id="color-1"><stop offset="0" stop-color="#ffffff"/><stop offset="1" stop-color="#e8e8e8"/></radialGradient><radialGradient cx="399.66654" cy="263.82153" r="309.07431" gradientUnits="userSpaceOnUse" id="color-2"><stop offset="0" stop-color="#ffffff"/><stop offset="1" stop-color="#e8e8e8"/></radialGradient><radialGradient cx="471.32589" cy="274.60456" r="136.67439" gradientUnits="userSpaceOnUse" id="color-3"><stop offset="0" stop-color="#ffffff"/><stop offset="1" stop-color="#e8e8e8"/></radialGradient><radialGradient cx="200.43775" cy="339.73794" r="251.21653" gradientUnits="userSpaceOnUse" id="color-4"><stop offset="0" stop-color="#ffffff"/><stop offset="1" stop-color="#e8e8e8"/></radialGradient><radialGradient cx="-19.81801" cy="321.1511" r="184.80853" gradientUnits="userSpaceOnUse" id="color-5"><stop offset="0" stop-color="#ffffff"/><stop offset="1" stop-color="#e8e8e8"/></radialGradient></defs><g transform="translate(75.04568,49.14829)"><g data-paper-data="{&quot;isPaintingLayer&quot;:true}" fill-rule="nonzero" stroke-width="0" stroke-linecap="butt" stroke-linejoin="miter" stroke-miterlimit="10" stroke-dasharray="" stroke-dashoffset="0" style="mix-blend-mode: normal"><path d="M-74.65871,408.51975v-31.04354h629.31741v31.04354z" fill="url(#color-1)" stroke="none"/><path d="M405.0111,252.08279c155.42529,-9.59581 165.1223,152.4024 -24.86805,152.4024c-68.00566,0 -412.11348,-5.66733 -454.77981,-6.17244c0.36654,-3.72813 -0.36053,-284.23005 -0.40892,-284.84527c73.41607,9.79912 164.5491,215.40111 280.06183,233.34647c145.35869,22.58205 128.78542,-90.33475 199.99494,-94.73116z" fill="url(#color-2)" stroke="#cdcdcd"/><path d="M320.05763,408.26937c-1.71353,-9.35786 -4.3897,-38.47634 27.16219,-33.69786c51.06653,7.73396 107.19836,-153.5 162.86084,-156.5c16.44871,-0.88653 44.24429,16.07539 44.24429,16.07539l0.33375,174.37284z" fill="url(#color-3)" stroke="#cdcdcd"/><path d="M63.1218,306.1939c299.33872,47.61435 364.65254,101.30893 364.65254,101.30893l-502.43305,-1.57695c0.75781,-5.62428 3.05339,-67.20988 3.02023,-86.95605c28.55366,-4.78305 86.35034,-15.04561 134.76028,-12.77594z" fill="url(#color-4)" stroke="#cdcdcd"/><path d="M15.32054,306.1939c62.80378,4.19794 204.58957,80.03389 245.85518,102.21902l-334.83442,-2.48703c0.75781,-5.62428 0.05154,-67.90188 0.0185,-87.99403c22.0087,-5.07348 57.2973,-13.8544 88.96074,-11.73795z" fill="url(#color-5)" stroke="#cdcdcd"/><path d="M-52.48781,61.96283v-111.11111h569.06907v111.11111z" fill="none" stroke="none"/></g></g></svg>