<svg version="1.1" xmlns="http://www.w3.org/2000/svg" xmlns:xlink="http://www.w3.org/1999/xlink" width="26.06059" height="26.06059" viewBox="0,0,26.06059,26.06059"><g transform="translate(-226.96971,-166.96971)"><g data-paper-data="{&quot;isPaintingLayer&quot;:true}" fill-rule="nonzero" stroke="none" stroke-linecap="butt" stroke-linejoin="miter" stroke-miterlimit="10" stroke-dasharray="" stroke-dashoffset="0" style="mix-blend-mode: normal"><path d="M243.5,182c-0.83333,0 -1.54167,-0.29167 -2.125,-0.875c-0.58333,-0.58333 -0.875,-1.29167 -0.875,-2.125c0,-0.83333 0.29167,-1.54167 0.875,-2.125c0.58333,-0.58333 1.29167,-0.875 2.125,-0.875c0.83333,0 1.54167,0.29167 2.125,0.875c0.58333,0.58333 0.875,1.29167 0.875,2.125c0,0.83333 -0.29167,1.54167 -0.875,2.125c-0.58333,0.58333 -1.29167,0.875 -2.125,0.875zM237.5,188v-1.9c0,-0.35 0.08333,-0.68333 0.25,-1c0.16667,-0.31667 0.4,-0.56667 0.7,-0.75c0.75,-0.45 1.54583,-0.7875 2.3875,-1.0125c0.84167,-0.225 1.72917,-0.3375 2.6625,-0.3375c0.93333,0 1.82083,0.1125 2.6625,0.3375c0.84167,0.225 1.6375,0.5625 2.3875,1.0125c0.3,0.18333 0.53333,0.43333 0.7,0.75c0.16667,0.31667 0.25,0.65 0.25,1v1.9zM230.5,182v-2h8v2zM230.5,174v-2h12v2zM238.6,178h-8.1v-2h9c-0.23333,0.28333 -0.42083,0.59167 -0.5625,0.925c-0.14167,0.33333 -0.25417,0.69167 -0.3375,1.075z" fill="#1f1f1f" stroke-width="1"/><path d="M226.96971,193.03029v-26.06059h26.06059v26.06059z" fill="none" stroke-width="0"/></g></g></svg>