<svg version="1.1" xmlns="http://www.w3.org/2000/svg" xmlns:xlink="http://www.w3.org/1999/xlink" width="142.40192" height="199.51952" viewBox="0,0,142.40192,199.51952"><g transform="translate(-168.79904,-80.24024)"><g data-paper-data="{&quot;isPaintingLayer&quot;:true}" fill-rule="nonzero" stroke-linecap="butt" stroke-linejoin="miter" stroke-miterlimit="10" stroke-dasharray="" stroke-dashoffset="0" style="mix-blend-mode: normal"><g fill="#333333" stroke="none" stroke-width="1"><path d="M188.71445,247.05373l-4.05842,-15.0525l-4.10983,15.0525c-0.31965,1.14162 -0.57651,1.96358 -0.77056,2.4659c-0.18266,0.49092 -0.50801,0.93615 -0.97605,1.33569c-0.46804,0.38815 -1.09022,0.58223 -1.86652,0.58223c-0.62791,0 -1.14736,-0.11987 -1.55834,-0.35961c-0.39959,-0.22832 -0.72494,-0.55368 -0.97605,-0.97605c-0.25116,-0.43381 -0.45665,-0.94183 -0.61647,-1.52403c-0.15983,-0.59364 -0.30253,-1.14162 -0.42811,-1.64393l-4.17832,-16.90157c-0.25116,-0.98179 -0.37673,-1.72956 -0.37673,-2.24331c0,-0.6507 0.22832,-1.19868 0.68497,-1.64393c0.45665,-0.44525 1.02176,-0.66788 1.69533,-0.66788c0.92469,0 1.54686,0.29682 1.86652,0.89046c0.31965,0.59364 0.59934,1.45557 0.83906,2.58579l3.28786,14.65826l3.68175,-13.71628c0.27399,-1.05029 0.51945,-1.84942 0.73637,-2.3974c0.21691,-0.54798 0.57081,-1.02176 1.0617,-1.42134c0.4909,-0.39959 1.15873,-0.59938 2.00351,-0.59938c0.85623,0 1.51837,0.21119 1.98642,0.63357c0.47948,0.41098 0.81055,0.86193 0.99321,1.35285c0.18266,0.49092 0.42812,1.30146 0.73637,2.43165l3.716,13.71628l3.28786,-14.65826c0.15983,-0.7649 0.30824,-1.36424 0.44523,-1.79802c0.14841,-0.43381 0.39387,-0.82197 0.73637,-1.16445c0.3539,-0.34249 0.86191,-0.51373 1.52403,-0.51373c0.66214,0 1.22153,0.22263 1.67818,0.66788c0.46804,0.43381 0.70207,0.98179 0.70207,1.64393c0,0.46804 -0.12558,1.21581 -0.37673,2.24331l-4.17832,16.90157c-0.2854,1.14162 -0.52514,1.98072 -0.71922,2.5173c-0.18266,0.52514 -0.50231,0.98749 -0.95896,1.38704c-0.44525,0.39959 -1.07886,0.59938 -1.90082,0.59938c-0.7763,0 -1.39847,-0.19408 -1.86652,-0.58223c-0.46808,-0.38815 -0.79345,-0.82197 -0.97611,-1.30144c-0.18266,-0.49092 -0.43951,-1.3243 -0.77056,-2.50014z"/><path d="M215.683,243.08229h-9.14419c0.0114,1.06169 0.22259,1.99781 0.63357,2.80838c0.42238,0.81057 0.97605,1.42134 1.66103,1.83233c0.69637,0.41098 1.46125,0.61647 2.29465,0.61647c0.55937,0 1.06738,-0.06279 1.52403,-0.18837c0.46804,-0.13699 0.91899,-0.34249 1.35285,-0.61647c0.43381,-0.2854 0.83338,-0.58792 1.1987,-0.90756c0.36532,-0.31965 0.8391,-0.75347 1.42134,-1.30144c0.23974,-0.20549 0.58223,-0.30824 1.02746,-0.30824c0.47948,0 0.86763,0.13129 1.16445,0.39386c0.29682,0.26257 0.44523,0.63359 0.44523,1.11305c0,0.42238 -0.16553,0.91899 -0.4966,1.48984c-0.33107,0.55937 -0.83338,1.10165 -1.50694,1.62683c-0.66214,0.51371 -1.50124,0.94183 -2.5173,1.28435c-1.00462,0.34249 -2.16338,0.51373 -3.47626,0.51373c-3.00247,0 -5.33707,-0.85621 -7.0038,-2.56864c-1.66676,-1.71243 -2.50014,-4.03559 -2.50014,-6.96949c0,-1.38134 0.20549,-2.65995 0.61647,-3.83584c0.41098,-1.18728 1.01032,-2.20332 1.79802,-3.04812c0.7877,-0.8448 1.75807,-1.4898 2.91113,-1.93501c1.15301,-0.45665 2.43163,-0.68497 3.83584,-0.68497c1.82659,0 3.39061,0.38815 4.69205,1.16445c1.31288,0.7649 2.29467,1.75811 2.94537,2.97962c0.6507,1.22155 0.97605,2.46591 0.97605,3.73309c0,1.17589 -0.33679,1.94077 -1.01036,2.29465c-0.67357,0.34249 -1.62112,0.51373 -2.84263,0.51373zM206.53881,240.428h8.47666c-0.11416,-1.59827 -0.54798,-2.79125 -1.30144,-3.57894c-0.74203,-0.79913 -1.72382,-1.1987 -2.94537,-1.1987c-1.16445,0 -2.12341,0.40528 -2.87688,1.21585c-0.74203,0.79913 -1.19298,1.98642 -1.35285,3.56185z"/><path d="M227.29494,228.15016v7.14102c0.87903,-0.91329 1.77519,-1.60968 2.68848,-2.08916c0.91329,-0.49092 2.0435,-0.73637 3.39061,-0.73637c1.5526,0 2.91113,0.37104 4.07558,1.11311c1.17589,0.73064 2.08348,1.79806 2.72279,3.20227c0.65074,1.39277 0.97611,3.04812 0.97611,4.96604c0,1.41561 -0.18266,2.71705 -0.54798,3.90433c-0.35391,1.17589 -0.87335,2.19764 -1.55834,3.06527c-0.68499,0.86763 -1.51837,1.54118 -2.50014,2.02066c-0.97036,0.46804 -2.04348,0.70207 -3.21936,0.70207c-0.71924,0 -1.39851,-0.08562 -2.03782,-0.25686c-0.62791,-0.17124 -1.16447,-0.39387 -1.60968,-0.66788c-0.44525,-0.2854 -0.8277,-0.57653 -1.14736,-0.87337c-0.30824,-0.29682 -0.71922,-0.74205 -1.23295,-1.33569v0.46236c0,0.87903 -0.21119,1.54686 -0.63357,2.00351c-0.42238,0.44525 -0.95894,0.66788 -1.60968,0.66788c-0.66214,0 -1.19298,-0.22263 -1.59253,-0.66788c-0.38815,-0.45665 -0.58223,-1.12448 -0.58223,-2.00351v-20.4119c0,-0.94756 0.18837,-1.66106 0.5651,-2.1405c0.38815,-0.49092 0.92471,-0.73637 1.60968,-0.73637c0.71924,0 1.27291,0.23402 1.66103,0.70207c0.38815,0.45665 0.58223,1.11309 0.58223,1.96932zM227.51755,242.03797c0,1.86086 0.4224,3.2936 1.2672,4.29822c0.85623,0.99323 1.97502,1.48984 3.35636,1.48984c1.17589,0 2.18621,-0.50801 3.03097,-1.52403c0.85623,-1.02746 1.28435,-2.49443 1.28435,-4.40091c0,-1.23295 -0.17695,-2.29465 -0.53085,-3.18511c-0.3539,-0.89046 -0.85621,-1.57543 -1.50694,-2.05491c-0.6507,-0.49092 -1.40987,-0.73637 -2.2775,-0.73637c-0.89046,0 -1.6839,0.24546 -2.3803,0.73637c-0.69637,0.47948 -1.24434,1.18158 -1.64393,2.10631c-0.39959,0.91329 -0.59938,2.00355 -0.59938,3.27076z"/><path d="M252.08879,240.2738h-1.78092v8.06556c0,1.06169 -0.23402,1.84368 -0.70207,2.346c-0.46804,0.50231 -1.07882,0.75347 -1.83233,0.75347c-0.81057,0 -1.43846,-0.26257 -1.88367,-0.78772c-0.44525,-0.52514 -0.66788,-1.29575 -0.66788,-2.31181v-19.31641c0,-1.09595 0.24546,-1.88939 0.73637,-2.3803c0.49092,-0.49092 1.28435,-0.73637 2.3803,-0.73637h8.27082c1.14162,0 2.11771,0.05137 2.92828,0.15412c0.81057,0.09133 1.5412,0.2854 2.19191,0.58223c0.7877,0.33107 1.48408,0.80485 2.08916,1.42134c0.60504,0.61647 1.06169,1.33569 1.36994,2.15766c0.31965,0.81057 0.47948,1.6725 0.47948,2.58579c0,1.87225 -0.53084,3.36777 -1.59253,4.48656c-1.05029,1.11879 -2.64855,1.91222 -4.7948,2.3803c0.9019,0.47948 1.76383,1.18728 2.58579,2.12341c0.82197,0.93613 1.5526,1.93505 2.19191,2.99678c0.6507,1.05029 1.15301,2.00355 1.50694,2.85978c0.36532,0.8448 0.54798,1.42702 0.54798,1.74668c0,0.33107 -0.10845,0.66214 -0.32536,0.99321c-0.20549,0.31965 -0.4909,0.57081 -0.85621,0.75347c-0.36532,0.19408 -0.78772,0.29111 -1.2672,0.29111c-0.57081,0 -1.05029,-0.13699 -1.43844,-0.41098c-0.38815,-0.26257 -0.72494,-0.59936 -1.01036,-1.01036c-0.27399,-0.41098 -0.65072,-1.01604 -1.1302,-1.81517l-2.03782,-3.39061c-0.73064,-1.24434 -1.38708,-2.19189 -1.96932,-2.84263c-0.57081,-0.6507 -1.15303,-1.09593 -1.74668,-1.33569c-0.59364,-0.23974 -1.34141,-0.35961 -2.24331,-0.35961zM254.99992,229.72536h-4.69205v6.90088h4.55506c1.22155,0 2.24901,-0.10275 3.08237,-0.30824c0.83336,-0.21691 1.46697,-0.57653 1.90082,-1.07886c0.44525,-0.51371 0.66788,-1.21581 0.66788,-2.10631c0,-0.69641 -0.17695,-1.30718 -0.53085,-1.83233c-0.3539,-0.53658 -0.8448,-0.93615 -1.47269,-1.1987c-0.59364,-0.25116 -1.76379,-0.37673 -3.51045,-0.37673z"/><path d="M285.08717,230.1039h-5.54826v18.2372c0,1.05029 -0.23402,1.83229 -0.70207,2.346c-0.46808,0.50231 -1.07314,0.75347 -1.81517,0.75347c-0.75347,0 -1.36994,-0.25685 -1.84942,-0.77056c-0.46804,-0.51371 -0.70207,-1.29001 -0.70207,-2.3289v-18.2372h-5.54826c-0.86763,0 -1.51263,-0.18837 -1.93501,-0.5651c-0.42238,-0.38815 -0.63357,-0.89616 -0.63357,-1.52403c0,-0.6507 0.21691,-1.16443 0.65072,-1.54118c0.44525,-0.37673 1.08456,-0.5651 1.91792,-0.5651h16.16543c0.87903,0 1.52975,0.19408 1.95217,0.58223c0.43381,0.38815 0.65072,0.89616 0.65072,1.52403c0,0.62791 -0.21691,1.13592 -0.65072,1.52403c-0.43381,0.37673 -1.08454,0.5651 -1.95217,0.5651z"/><path d="M311.20096,243.08229c0,0.79913 -0.19979,1.66676 -0.59938,2.60289c-0.38815,0.92469 -1.00462,1.83799 -1.84942,2.73988c-0.8448,0.89046 -1.92362,1.6154 -3.23646,2.17481c-1.31288,0.55937 -2.84265,0.83906 -4.5893,0.83906c-1.32428,0 -2.52869,-0.12558 -3.61325,-0.37673c-1.08456,-0.25116 -2.07207,-0.63931 -2.96253,-1.16445c-0.87903,-0.53658 -1.68958,-1.23868 -2.43165,-2.10631c-0.66214,-0.7877 -1.22725,-1.66674 -1.69533,-2.63714c-0.46804,-0.98179 -0.82195,-2.02638 -1.0617,-3.13377c-0.22832,-1.10735 -0.34249,-2.28322 -0.34249,-3.5276c0,-2.02064 0.29112,-3.8301 0.87337,-5.42836c0.59364,-1.59827 1.43844,-2.96251 2.53439,-4.09273c1.09595,-1.14162 2.38028,-2.00925 3.85299,-2.60289c1.47267,-0.59364 3.0424,-0.89046 4.7092,-0.89046c2.03208,0 3.84154,0.40528 5.42836,1.21585c1.58687,0.81057 2.80268,1.81519 3.64744,3.01387c0.8448,1.18728 1.2672,2.31179 1.2672,3.37351c0,0.58224 -0.20549,1.09597 -0.61647,1.54118c-0.41098,0.44525 -0.9076,0.66788 -1.48984,0.66788c-0.6507,0 -1.1416,-0.15412 -1.47269,-0.46236c-0.31965,-0.30824 -0.67927,-0.83908 -1.07886,-1.59253c-0.66214,-1.24438 -1.44414,-2.17481 -2.346,-2.79129c-0.89046,-0.61647 -1.99211,-0.92471 -3.30496,-0.92471c-2.08918,0 -3.75594,0.79343 -5.00029,2.3803c-1.23295,1.58687 -1.84942,3.84161 -1.84942,6.76423c0,1.95219 0.27399,3.57898 0.82197,4.88039c0.54798,1.29001 1.32428,2.25467 2.3289,2.89397c1.00462,0.63931 2.18049,0.95896 3.5276,0.95896c1.46127,0 2.69422,-0.35962 3.69884,-1.07886c1.01602,-0.73064 1.7809,-1.79806 2.29465,-3.20227c0.21691,-0.66214 0.4852,-1.1987 0.80487,-1.60968c0.31965,-0.42238 0.83338,-0.63357 1.54118,-0.63357c0.60504,0 1.12448,0.21119 1.55834,0.63357c0.43381,0.42238 0.65072,0.94752 0.65072,1.57543z"/></g><path d="M247.65218,183.94105c0,17.29667 -14.02054,31.31951 -31.31722,31.31951c-17.29897,0 -31.31951,-14.02284 -31.31951,-31.31951c0,-17.29667 14.02054,-31.31951 31.31951,-31.31951c17.29667,0 31.31722,14.02284 31.31722,31.31951" fill="#ff6600" stroke="none" stroke-width="1"/><path d="M309.5961,140.09245c0,17.29438 -14.02054,31.31951 -31.31722,31.31951c-17.29897,0 -31.31951,-14.02514 -31.31951,-31.31951c0,-17.29667 14.02054,-31.32181 31.31951,-31.32181c17.29667,0 31.31722,14.02514 31.31722,31.32181" fill="#ffcc00" stroke="none" stroke-width="1"/><path d="M233.03986,139.4005c0,17.29438 -14.02054,31.31951 -31.31951,31.31951c-17.29438,0 -31.31722,-14.02514 -31.31722,-31.31951c0,-17.29667 14.02284,-31.32181 31.31722,-31.32181c17.29897,0 31.31951,14.02514 31.31951,31.32181" fill="#0089cc" stroke="none" stroke-width="1"/><path d="M295.67573,183.94105c0,17.29667 -14.02054,31.31951 -31.32181,31.31951c-17.29438,0 -31.31722,-14.02284 -31.31722,-31.31951c0,-17.29667 14.02284,-31.31951 31.31722,-31.31951c17.30126,0 31.32181,14.02284 31.32181,31.31951" fill="#009939" stroke="none" stroke-width="1"/><path d="M271.31798,111.55975c0,17.29667 -14.02284,31.31951 -31.31951,31.31951c-17.29667,0 -31.31951,-14.02284 -31.31951,-31.31951c0,-17.29667 14.02284,-31.31951 31.31951,-31.31951c17.29667,0 31.31951,14.02284 31.31951,31.31951" fill="#bf0000" stroke="none" stroke-width="1"/><path d="M246.96023,140.09245c0,-14.8654 10.3679,-27.28576 24.25988,-30.49302c0.04132,0.64972 0.09872,1.29714 0.09872,1.95603c0,14.8654 -10.3679,27.28576 -24.25988,30.49072c-0.04132,-0.64972 -0.09872,-1.29484 -0.09872,-1.95374" fill="#fc0007" stroke="none" stroke-width="1"/><path d="M251.09448,155.60024c4.03375,-1.89175 8.51747,-2.97997 13.26522,-2.97997c11.65126,0 21.79417,6.37548 27.18934,15.81128c-4.03375,1.89175 -8.51747,2.97997 -13.26522,2.97997c-11.64897,0 -21.79188,-6.37548 -27.18934,-15.81128" fill="#1cd306" stroke="none" stroke-width="1"/><path d="M233.03986,183.94105c0,-7.65195 2.75039,-14.65419 7.30988,-20.09298c4.5549,5.43879 7.30528,12.44102 7.30528,20.09298c0,7.65195 -2.75039,14.65419 -7.30528,20.09298c-4.55949,-5.43879 -7.30988,-12.44102 -7.30988,-20.09298" fill="#0f7504" stroke="none" stroke-width="1"/><path d="M189.31918,168.15416c5.43419,-9.27969 15.48527,-15.53119 27.01945,-15.53119c4.40567,0 8.59553,0.91833 12.3997,2.56213c-5.43649,9.28198 -15.48527,15.53349 -27.01945,15.53349c-4.40797,0 -8.59553,-0.92062 -12.3997,-2.56443" fill="#0c5e87" stroke="none" stroke-width="1"/><path d="M208.81584,108.91407c13.87591,3.21644 24.22544,15.62991 24.22544,30.48383c0,0.89078 -0.06199,1.76778 -0.13316,2.64019c-13.87591,-3.21873 -24.22774,-15.62761 -24.22774,-30.48154c0,-0.89307 0.06199,-1.77007 0.13545,-2.64248" fill="#6b0001" stroke="none" stroke-width="1"/><path d="M211.74064,180.06265h-4.89927c-4.32532,0 -7.8425,-3.50571 -7.8425,-7.81955v-44.34597c0,-4.31384 3.51719,-7.82184 7.8425,-7.82184h61.43372c4.32532,0 7.84021,3.50801 7.84021,7.82184v44.34597c0,4.31384 -3.51489,7.81955 -7.84021,7.81955h-20.92865l-41.99046,20.58428z" fill="#ffffff" stroke="none" stroke-width="1"/><path d="M176.83192,279.75976c-1.28455,0 -2.32588,-1.04133 -2.32588,-2.32588v-18.04825c0,-1.28455 1.04133,-2.32588 2.32588,-2.32588h122.81749c1.28455,0 2.32588,1.04133 2.32588,2.32588v18.04825c0,1.28455 -1.04133,2.32588 -2.32588,2.32588z" fill-opacity="0.43529" fill="#ffffff" stroke="none" stroke-width="0"/><text transform="translate(175.95985,271.76411) scale(0.29073,0.29073)" font-size="40" xml:space="preserve" fill-opacity="0.48235" fill="#000000" fill-rule="nonzero" stroke-opacity="0.54118" stroke="#000000" stroke-width="2" stroke-linecap="butt" stroke-linejoin="miter" stroke-miterlimit="10" stroke-dasharray="" stroke-dashoffset="0" font-family="Arial" font-weight="normal" text-anchor="start" style="mix-blend-mode: normal"><tspan x="0" dy="0">Loading Video Stream...</tspan></text></g></g></svg>