<svg version="1.1" xmlns="http://www.w3.org/2000/svg" xmlns:xlink="http://www.w3.org/1999/xlink" width="482.4065" height="224.6165" viewBox="0,0,482.4065,224.6165"><g transform="translate(0.3978,-137.2519)"><g data-paper-data="{&quot;isPaintingLayer&quot;:true}" fill-rule="nonzero" stroke="none" stroke-width="0.5024" stroke-linecap="butt" stroke-linejoin="miter" stroke-miterlimit="10" stroke-dasharray="" stroke-dashoffset="0" style="mix-blend-mode: normal"><g><path d="M481.9109,159.207v25.6729l-482.3087,-1.3062v-45.317c28.2854,0 41.4986,15.8258 69.8342,15.8258c16.1775,0 23.5126,-3.5671 31.6013,-8.2897c6.0791,-3.5168 12.4094,-8.5409 24.5676,-8.5409c18.5388,0 25.1705,7.2347 35.4196,12.2085c5.4259,2.6627 26.2255,8.6413 46.6734,-1.4068c7.8375,-4.0192 16.3784,-6.3805 25.1705,-7.0336c2.9139,-0.201 6.0288,-0.3517 9.4452,-0.3517c28.2854,0 25.3714,13.4644 53.7071,13.4644c18.6894,0 36.8263,-7.938 53.8075,-8.4906c16.9813,-0.5527 49.1352,8.4906 59.4848,8.4906c16.8305,0 23.2111,-3.768 31.9529,-8.2897c5.9284,-3.0646 29.1898,-7.536 40.6948,-7.536v20.9z" fill="#463c00"/><path d="M233.7731,182.9708h-38.6349c1.8086,-6.7323 5.6269,-11.7061 12.3089,-14.3186c3.3661,-1.3565 6.8327,-2.1603 10.3495,-1.8589c6.1796,0.5024 11.5553,3.0145 14.3688,9.8974c0.201,0.5024 0.5527,1.0048 0.7536,1.5072c0.6531,1.5072 0.9546,3.1149 0.8541,4.7226z" fill="#322800"/><path d="M168.5609,183.5234h-95.2057c4.4212,-6.7322 13.9166,-11.706 30.3453,-14.3185c8.3901,-1.457 16.9813,-2.0599 25.5221,-1.8589c15.2731,0.5024 28.4362,3.0144 35.4196,9.8974c0.5024,0.5024 1.3062,1.0048 1.8589,1.5072c1.6077,1.5574 2.2608,3.1651 2.0598,4.7226z" fill="#322800"/></g><g><path d="M277.6806,177.6868c-1.5072,1.3565 -4.3206,0.7034 -6.1293,0.6531l-7.8375,-0.2009c-5.3757,-0.1508 -10.7515,-0.3015 -16.1774,-0.5527c-4.9739,-0.2512 -9.8974,-0.8541 -14.821,-1.1555c-2.4618,-0.1507 -4.8733,-0.3015 -7.3351,-0.3517c-1.8087,-0.0502 -4.5217,0.4019 -5.9786,-0.9546c3.1149,-3.8685 8.6413,-3.2154 13.1127,-3.2656c5.5265,-0.0502 11.2539,0.3517 16.7804,-0.4522c5.4762,-0.8038 11.1534,-1.4067 16.7803,-0.9545c5.8279,0.4521 8.2897,2.6627 11.6055,7.2346z" fill="#82783c"/><path d="M-0.3,174.5216h482.158v187.3468h-482.158v-187.3468" fill="#645a1e"/><path d="M258.1873,196.8787c1.0551,-10.2993 13.0626,-12.309 21.4527,-13.4142c12.2587,-1.5575 24.9193,-2.4116 37.2785,-1.7585c23.3116,1.256 46.8241,0.4522 70.1357,2.4116c12.3592,8.0887 1.5072,18.2875 -9.1438,20.7995c-13.5147,3.2154 -27.783,2.2106 -41.5489,2.6125c-14.6199,0.4522 -29.0892,-0.0502 -43.7092,-0.2512c-12.2084,-0.0502 -28.1347,1.7082 -34.465,-10.3997z" fill="#82783c"/><path d="M286.322,265.6579c2.3111,-8.6916 7.2849,-15.0721 15.9262,-18.4885c4.371,-1.7082 8.8926,-2.7632 13.4143,-2.3613c8.0384,0.6531 14.9214,3.9188 18.5889,12.8113c0.3015,0.7034 0.7034,1.3063 1.0049,1.9594c0.8038,1.9091 1.1555,4.0192 1.055,6.0791z" fill="#322800"/><path d="M224.5764,274.1485c2.3111,-8.6916 7.2849,-15.0721 15.9263,-18.4885c4.3709,-1.7081 8.8925,-2.7632 13.4142,-2.3613c8.0385,0.6532 14.9214,3.9188 18.589,12.8114c0.3014,0.7033 0.7033,1.3062 1.0048,1.9593c0.8038,1.9092 1.1555,4.0193 1.055,6.0791z" fill="#463c00"/><path d="M171.1206,266.9642c-12.4597,3.4665 -24.1657,2.4115 -36.9268,2.2105c-6.0289,-0.0502 -12.0075,-1.0048 -17.7851,-2.8134c-4.9738,-1.5072 -10.9022,-1.9092 -14.4191,-6.2299c-4.7226,-11.0529 26.3763,-9.4452 31.0989,-9.4954c6.9834,-0.0502 13.9166,0.7536 20.7996,1.7082c7.1844,1.0048 14.3185,1.2057 21.5029,1.8589l1.256,3.567c-0.5526,4.1198 -2.2608,7.0337 -5.5264,9.1941z" fill="#463c00"/><path d="M46.3232,189.5938c0.4019,-4.6724 5.8279,-5.6772 9.6462,-6.2298c5.5766,-0.8541 11.2538,-1.2058 16.8808,-1.0551c10.6007,0.4019 21.2517,-0.1005 31.8022,0.7034c5.6772,3.6173 0.8038,8.2897 -4.0192,9.4954c-6.1294,1.5073 -12.5602,1.1556 -18.8402,1.457c-6.6318,0.3015 -13.2133,0.1507 -19.845,0.1507c-5.4762,0 -12.7109,0.9044 -15.6248,-4.5216z" fill="#82783c"/><path d="M179.3098,170.8541l0.7536,0.2512c0.0502,1.3062 0.1005,2.5623 0.2009,3.768c-0.1004,0.1005 -0.1507,0.1507 -0.2512,0.201c-0.2009,0 -0.4019,0 -0.5526,0c-0.1005,-0.3015 -0.1507,-0.6029 -0.201,-0.9546c0,-1.0048 0.0503,-2.0096 0.0503,-3.2656z" fill="#645a1e"/><path d="M177.3504,174.9738c-0.201,-0.2512 -0.4019,-0.3517 -0.4019,-0.5024c-0.0503,-0.6531 -0.1005,-1.3565 -0.1005,-2.0096c0.0502,-0.3517 0.1507,-0.7536 0.2512,-1.1053l0.6531,0.3517c0.1005,2.512 0.1005,2.512 -0.4019,3.2656z" fill="#645a1e"/><path d="M182.7261,174.9738l-0.8038,0.1507c-0.5527,-1.055 -0.0503,-2.0598 -0.1508,-3.1149l0.5527,-0.1507c0.4019,1.055 0.2512,2.0599 0.4019,3.1149z" fill="#645a1e"/><path d="M92.1927,176.481c-0.2009,-0.2512 -0.4019,-0.3517 -0.4019,-0.5024c-0.0502,-0.6531 -0.1005,-1.3565 -0.1005,-2.0096c0.0503,-0.3517 0.1508,-0.7536 0.2512,-1.1053l0.6532,0.3517c0.1507,2.512 0.1507,2.512 -0.402,3.2656z" fill="#645a1e"/><path d="M97.5685,176.5313l-0.8039,0.1507c-0.5526,-1.0551 -0.0502,-2.0599 -0.1507,-3.1149l0.5527,-0.1507c0.4521,1.055 0.3014,2.0598 0.4019,3.1149z" fill="#645a1e"/><path d="M454.7784,176.4308l-0.6531,-0.2512c0.1004,-1.7082 0.4019,-3.3661 0.1507,-5.1245l0.8038,-0.1508c0.0503,1.8087 -0.0502,3.6676 -0.3014,5.5265z" fill="#645a1e"/><path d="M452.6683,173.2656c0.1005,1.0048 0.2009,1.9092 0.3517,2.9642h-0.8541c-0.0503,-1.055 -0.1005,-2.0096 -0.201,-3.1149z" fill="#645a1e"/></g><g><path d="M482.0087,257.4125v104.1486h-482.3087v-97.3661v-19.4782c36.2736,0 75.7627,5.7625 97.0646,7.2195c7.5361,0.5024 39.5895,4.7729 54.9631,6.3303c19.5938,2.0096 51.798,3.969 87.7702,3.969c65.2121,0 85.0069,-1.0048 118.3666,-4.5216c24.5676,-2.6125 75.9636,-12.9972 123.9935,-12.9972z" fill="#82783c"/><path d="M49.4883,283.4873c-5.7776,10.651 -19.9454,8.8926 -30.7472,8.8926h-19.0411v-22.3068c6.8829,0.2512 26.7279,0.7034 30.8477,1.256c7.4356,1.0551 18.1368,3.0145 18.9406,12.1582z" fill="#645a1e"/><path d="M448.3476,271.3291c4.1197,-0.5526 26.7782,-1.0048 33.6611,-1.256v22.3068h-21.8043c-10.8017,0 -24.9696,1.7584 -30.7472,-8.8926c0.8038,-9.1437 11.4548,-11.1031 18.8904,-12.1582z" fill="#645a1e"/><path d="M129.019,257.714c-0.1005,-1.256 -0.2009,-2.2609 0.1507,-3.4164l0.7537,0.0503v2.9641z" fill="#82783c"/><path d="M127.2104,256.9604h-0.7034c-0.3014,-0.8039 0.1507,-1.6077 -0.0502,-2.4618l0.8038,-0.3015c0.201,1.0048 -0.1507,1.8087 -0.0502,2.7633z" fill="#82783c"/><path d="M200.1093,257.9652l0.7536,0.2512c0.0503,1.3062 0.1005,2.5622 0.1508,3.768c-0.1005,0.1005 -0.1508,0.1507 -0.2512,0.201c-0.201,0 -0.402,0 -0.5527,0c-0.1005,-0.3015 -0.1507,-0.6532 -0.201,-0.9546c0,-1.0048 0.0503,-2.0096 0.1005,-3.2656z" fill="#82783c"/><path d="M198.0997,262.0347c-0.201,-0.2512 -0.4019,-0.3517 -0.4019,-0.5025c-0.0503,-0.6531 -0.1005,-1.3564 -0.1005,-2.0096c0.0502,-0.3517 0.1507,-0.7536 0.2512,-1.1053l0.6531,0.3517c0.1508,2.512 0.1508,2.512 -0.4019,3.2657z" fill="#82783c"/><path d="M203.4754,262.0849l-0.8038,0.1507c-0.5527,-1.055 -0.0502,-2.0598 -0.1507,-3.1149l0.5526,-0.1507c0.4019,1.0048 0.2512,2.0598 0.4019,3.1149z" fill="#82783c"/><path d="M351.7351,259.6231l-0.6531,-0.2512c0.1005,-1.7082 0.4019,-3.3661 0.1507,-5.1245l0.8039,-0.1507c0,1.8086 -0.1005,3.6675 -0.3015,5.5264z" fill="#82783c"/><path d="M349.5748,256.458c0.1005,1.0048 0.201,1.9091 0.3517,2.9641h-0.8541c-0.0503,-1.055 -0.1005,-2.0096 -0.201,-3.1149z" fill="#82783c"/></g><path d="M214.1793,361.5871c1.8087,-9.2945 14.5698,-16.8306 22.759,-19.3426c11.1533,-3.4666 23.8642,-2.6628 35.4195,-3.2154c12.6606,-0.6029 128.1133,-0.7536 139.7691,-0.201c21.0507,1.0048 45.1662,-1.2057 59.6354,17.2325c1.4067,1.6077 2.3613,3.4666 2.8135,5.5265z" fill="#645a1e"/></g></g></svg>