<svg version="1.1" xmlns="http://www.w3.org/2000/svg" xmlns:xlink="http://www.w3.org/1999/xlink" width="631.46385" height="416.65034" viewBox="0,0,631.46385,416.65034"><defs><radialGradient cx="321.2905" cy="352.05895" r="314.31456" gradientUnits="userSpaceOnUse" id="color-1"><stop offset="0" stop-color="#ffffff"/><stop offset="1" stop-color="#e8e8e8"/></radialGradient><radialGradient cx="480.70705" cy="216.75751" r="309.07431" gradientUnits="userSpaceOnUse" id="color-2"><stop offset="0" stop-color="#ffffff"/><stop offset="1" stop-color="#e8e8e8"/></radialGradient><radialGradient cx="552.3664" cy="227.54054" r="136.67439" gradientUnits="userSpaceOnUse" id="color-3"><stop offset="0" stop-color="#ffffff"/><stop offset="1" stop-color="#e8e8e8"/></radialGradient><radialGradient cx="299.54127" cy="292.1051" r="263.4786" gradientUnits="userSpaceOnUse" id="color-4"><stop offset="0" stop-color="#ffffff"/><stop offset="1" stop-color="#e8e8e8"/></radialGradient><radialGradient cx="61.2225" cy="274.08709" r="184.80853" gradientUnits="userSpaceOnUse" id="color-5"><stop offset="0" stop-color="#ffffff"/><stop offset="1" stop-color="#e8e8e8"/></radialGradient></defs><g transform="translate(-5.23921,52.33014)"><g data-paper-data="{&quot;isPaintingLayer&quot;:true}" fill-rule="nonzero" stroke-linecap="butt" stroke-linejoin="miter" stroke-miterlimit="10" stroke-dasharray="" stroke-dashoffset="0" style="mix-blend-mode: normal"><path d="M6.97594,363.32021v-297.2973l37.03754,274.77477l573.57357,0l18.01802,-151.65165v174.17417z" fill="url(#color-1)" stroke="#cdcdcd" stroke-width="2"/><path d="M486.05161,205.01877c155.42529,-9.59581 165.1223,152.4024 -24.86805,152.4024c-68.00566,0 -411.44681,-5.66733 -454.11314,-6.17244c0.36654,-3.72813 0.99826,-275.42897 0.99826,-282.97131c0,-0.6345 -0.02546,-1.25874 -0.07385,-1.87396c73.41607,9.79912 162.5491,215.40111 278.06183,233.34647c145.35869,22.58205 128.78542,-90.33475 199.99494,-94.73116z" fill="url(#color-2)" stroke="#cdcdcd" stroke-width="2"/><path d="M401.09815,360.53869c-1.71353,-9.35786 -4.3897,-37.80967 27.16219,-33.03119c51.06653,7.73396 107.19836,-153.5 162.86084,-156.5c16.44871,-0.88653 43.91096,16.07539 43.91096,16.07539l0.66708,174.70618z" fill="url(#color-3)" stroke="#cdcdcd" stroke-width="2"/><path d="M144.16231,259.12988c299.33872,47.61435 364.65254,101.9756 364.65254,101.9756l-502.43305,-3.91028c0.75781,-5.62428 3.05339,-65.54321 3.02023,-85.28938c28.55366,-4.78305 86.35034,-15.04561 134.76028,-12.77594z" fill="url(#color-4)" stroke="#cdcdcd" stroke-width="2"/><path d="M96.36105,259.12988c62.80378,4.19794 204.58957,78.36722 245.85518,100.55235l-334.83442,-0.82036c0.75781,-5.62428 0.05154,-67.90188 0.0185,-87.99403c22.0087,-5.07348 57.2973,-13.8544 88.96074,-11.73795z" fill="url(#color-5)" stroke="#cdcdcd" stroke-width="2"/><path d="M7.97744,362.08428v-414.41441h624.62462v414.41441z" fill="none" stroke="none" stroke-width="0"/></g></g></svg>