<svg version="1.1" xmlns="http://www.w3.org/2000/svg" xmlns:xlink="http://www.w3.org/1999/xlink" width="101.0331" height="101.0331" viewBox="0,0,101.0331,101.0331"><g transform="translate(-189.48345,-93.02649)"><g data-paper-data="{&quot;isPaintingLayer&quot;:true}" fill-rule="nonzero" stroke-linejoin="miter" stroke-miterlimit="10" stroke-dasharray="" stroke-dashoffset="0" style="mix-blend-mode: normal"><path d="M191.98345,191.55959v-96.03309h96.0331v96.0331z" fill="none" stroke="#000000" stroke-width="5" stroke-linecap="butt"/><g stroke-linecap="butt"><path d="M191.98345,191.55959v-96.03309h96.0331v96.0331z" fill="#c00000" stroke="#000000" stroke-width="5"/><path d="M206.21058,177.33244v-67.57884h67.57885v67.57885z" fill="none" stroke="#7e0000" stroke-width="23"/></g><path d="M259.97033,166.53228c0,0 3.30743,15.24419 4.1216,25.88649c0.02607,0.34071 0.04972,-0.02822 0.07108,0.30503c-1.64662,-0.04214 -3.29379,-0.08138 -4.94133,-0.11634c0,0 0.63813,-22.78869 0.71902,-25.76687c0.01642,-0.60459 0.02963,-0.30831 0.02963,-0.30831z" fill="#eb0000" stroke="#000000" stroke-width="2.5" stroke-linecap="butt"/><path d="M208.16942,184.44632l9.87342,-16.54432l6.72989,4.01631l-9.87342,16.54432z" fill="#eb0000" stroke="#000000" stroke-width="0" stroke-linecap="butt"/><path d="M235.29326,163.99711v-12.23753h9.41348v12.23753z" fill="#ffffff" stroke="#000000" stroke-width="2.5" stroke-linecap="butt"/><path d="M220.42937,165.52212c0,0 10.74792,-1.23576 17.68314,-1.48244c0.38507,-0.0137 1.18653,0.30454 1.96298,0.30182c0.77403,-0.00272 1.52322,-0.32644 1.81027,-0.31786c6.7807,0.2026 17.68488,1.49848 17.68488,1.49848l-1.46149,26.88594c-12.06761,-0.24134 -24.15324,-0.58862 -36.18845,0.21386z" fill="#eb0000" stroke="#000000" stroke-width="2.5" stroke-linecap="butt"/><path d="M221.25798,177.38707l-3.47343,6.54607" fill="none" stroke="#000000" stroke-width="2.5" stroke-linecap="round"/><path d="M259.67235,165.62384l-1.45625,25.19795c-3.49816,-0.07038 -6.99786,0.23284 -10.49742,0.21709c5.48016,-9.90526 11.95367,-25.41504 11.95367,-25.41504z" fill="#d70000" stroke="#000000" stroke-width="0" stroke-linecap="butt"/><path d="M235.50426,164.9732h9.14344c0,0 -3.78375,5.71465 -5.06154,5.71465c-1.2234,0 -4.08189,-5.71465 -4.08189,-5.71465z" fill="#ffffff" stroke="none" stroke-width="0" stroke-linecap="butt"/><path d="M222.01674,193.85097l-1.48564,-28.22712l14.79776,-1.3398c0,0 2.96019,6.36135 4.58312,6.35818c1.59613,-0.00311 5.07538,-6.377 5.07538,-6.377l14.68499,1.35862l-1.45625,27.66882" fill="none" stroke="#000000" stroke-width="2.5" stroke-linecap="butt"/><path d="M209.54134,184.29683h26.06306c0,0 4.92678,1.67336 5.09139,3.87915c0.16461,2.20578 -4.48527,4.24282 -4.48527,4.24282c0,0 -24.65206,0.14204 -29.82991,0.35105c-1.76456,0.07123 -2.48015,-0.73212 -1.467,-2.39859c2.73909,-4.50536 15.21649,-25.02861 15.21649,-25.02861" fill="#d70000" stroke="#000000" stroke-width="2.5" stroke-linecap="round"/><path d="M229.96759,190.13067c0,-3.89138 3.15458,-7.04595 7.04594,-7.04595c3.89138,0 7.04595,3.15459 7.04595,7.04595c0,1.08273 -0.24422,1.57894 -0.68057,2.49551c-4.20447,0.01762 -8.40775,-0.08415 -12.60694,0.0709c-0.51371,-0.97782 -0.80438,-1.38518 -0.80438,-2.5664z" fill="#ffffff" stroke="#000000" stroke-width="2.5" stroke-linecap="butt"/><g><path d="M259.47578,141.81966c-5.43604,5.59622 -10.82729,8.20936 -21.64101,7.11793c-15.12392,-1.52647 -25.94403,-7.47268 -24.81067,-18.70187c0.4928,-4.8825 1.6035,-7.2916 2.57963,-11.76435c0.15043,-0.39626 -2.45481,-5.04617 -2.58383,-8.20962c-0.10899,-2.67227 0.84736,-4.43659 4.55784,-4.54117c3.04125,0.13738 4.9937,0.73784 6.74214,1.19567c1.28936,0.33761 -0.32784,-1.69867 2.43075,-4.25265c2.36281,-2.18757 3.56574,-1.84835 5.68156,-0.55742c1.69744,1.03567 3.20323,4.18299 5.11965,4.44929c0.57392,-0.33987 -0.2107,-2.89294 1.9742,-4.05097c1.81831,-0.96372 3.87811,-0.51713 5.52031,0.91348c1.89623,1.65191 1.81976,3.54597 3.89103,4.54887c1.178,0.57039 5.74452,1.19257 6.31425,1.50758c1.53389,0.84808 3.24613,-3.13992 5.76456,-0.85945c2.04479,1.85158 0.59419,2.6915 1.1582,4.41309c0.12685,0.38723 3.02485,-2.23108 4.19156,0.61164c1.4506,3.53441 -2.08817,3.30379 -1.72971,5.6289c0.78876,5.11618 1.8291,12.06078 1.53093,14.327c-1.32874,10.09869 -4.52465,5.99345 -6.69139,8.22404z" fill="#974c00" stroke="#000000" stroke-width="2.5" stroke-linecap="butt"/><path d="M216.46652,135.2277c-0.4709,-12.89545 9.6012,-23.73103 22.49667,-24.20192c12.89545,-0.47089 23.73103,9.6012 24.20192,22.49666c0.47089,12.89545 -9.60119,23.73103 -22.49666,24.20193c-12.89545,0.4709 -23.73103,-9.6012 -24.20193,-22.49667z" fill="#ffffff" stroke="#000000" stroke-width="2.5" stroke-linecap="butt"/><path d="M262.95292,138.38834c0,0 -0.86933,6.71821 -1.04138,8.43454c-0.07067,0.70496 -0.49867,2.33266 -1.34404,3.05854c-1.94889,1.67342 -11.12812,9.36099 -20.27748,9.77225c-8.94203,0.40195 -17.85552,-6.43524 -19.96269,-7.98794c-0.93649,-0.69006 -1.47416,-2.11793 -1.61796,-2.98866c-0.31409,-1.90192 -1.69432,-9.10389 -1.69432,-9.10389" fill="#ffffff" stroke="#000000" stroke-width="2.5" stroke-linecap="round"/><path d="M250.41155,135.47716c-0.23075,2.28617 -1.84343,3.9956 -3.60202,3.81811c-1.7586,-0.17749 -2.99716,-2.1747 -2.76642,-4.46087c0.23075,-2.28617 1.84342,-3.99559 3.60202,-3.81809c1.7586,0.17749 2.99717,2.17469 2.76642,4.46086z" fill="#000000" stroke="none" stroke-width="0" stroke-linecap="butt"/><path d="M218.52551,119.39763l2.20932,-9.41604c0,0 14.3293,-1.68236 21.03913,-1.00513c6.63044,0.66921 17.38903,4.16172 17.38903,4.16172c0,0 2.41391,4.86376 3.21298,7.29037c0.7926,2.40699 1.49191,7.90738 1.49191,7.90738c0,0 -5.49087,3.52899 -12.19907,-6.12215c-1.06311,-1.52951 -3.62808,0.40994 -5.71598,0.168c-1.71768,-0.19903 -3.46454,-2.37531 -5.23799,-2.91926c-2.26788,-0.69561 -4.47233,0.21862 -5.56735,-0.01915c-2.87318,-0.62387 -6.06856,-3.77997 -6.06856,-3.77997c0,0 -3.78708,3.73046 -5.55357,4.09747c-1.84026,0.38233 -4.99987,-0.36321 -4.99987,-0.36321z" fill="#974c00" stroke="none" stroke-width="0" stroke-linecap="butt"/><path d="M218.6758,120.84427c0,0 2.95881,0.82404 5.36141,-0.66219c2.4026,-1.48624 5.07954,-5.02257 5.07954,-5.02257c0,0 2.83298,3.7998 5.03118,4.59907c2.19819,0.79928 5.96314,-0.60145 5.96314,-0.60145c0,0 2.15395,3.02356 4.59644,3.59255c2.44249,0.56899 6.34068,-1.04468 6.34068,-1.04468c0,0 1.87229,4.08495 4.508,5.74959c2.63571,1.66463 7.73748,1.98426 7.73748,1.98426" fill="none" stroke="#000000" stroke-width="2.5" stroke-linecap="round"/><path d="M231.79371,135.62258c-0.23075,2.28618 -1.84343,3.9956 -3.60202,3.8181c-1.7586,-0.17749 -2.99716,-2.17469 -2.76641,-4.46087c0.23075,-2.28618 1.84341,-3.9956 3.60201,-3.81811c1.7586,0.17749 2.99717,2.1747 2.76642,4.46087z" fill="#000000" stroke="none" stroke-width="0" stroke-linecap="butt"/><path d="M241.02652,135.85494c0,0 -1.55257,2.906 -3.28609,2.68357c-1.73352,-0.22242 -2.83265,-3.46865 -2.83265,-3.46865" fill="none" stroke="#000000" stroke-width="2.5" stroke-linecap="round"/></g></g></g></svg>